<svg height="48pt" viewBox="0 0 48 48" width="48pt" xmlns="http://www.w3.org/2000/svg" xmlns:xlink="http://www.w3.org/1999/xlink"><linearGradient id="a" gradientTransform="matrix(47 0 0 43.633 .5 2.183)" gradientUnits="userSpaceOnUse" x1=".061897" x2=".990425" y1=".147162" y2=".986581"><stop offset="0" stop-color="#16b5e4"/><stop offset=".98260869565" stop-color="#f520fa"/></linearGradient><path d="m26 36.317v1.5 1c0 1.655-1.344 3-3 3h-3c-1.656 0-3-1.076-3-2.4 0-.595.407-1.115 1.015-1.382.106 1.001.955 1.782 1.985 1.782 1.104 0 2-.896 2-2v-9c0-1.06-.42-2.08-1.17-2.83s-1.77-1.17-2.83-1.17v-2c0-1.104-.896-2-2-2-1.104 0-2 .896-2 2v.657c-.468.188-.945.35-1.433.491-.603.173-1.236.255-1.869.265-.746.011-1.481-.194-2.115-.582-.745-.511-1.348-1.205-1.757-2.002-.316-.572-.582-1.164-.796-1.777-.266-.746-.48-1.512-.644-2.278-.429-2.012-.684-4.045-.786-6.088-.041-.674-.021-1.348.061-2.012.051-.398.153-.786.296-1.164.072-.184.164-.368.266-.542.082-.143.173-.276.286-.388.102-.122.214-.225.337-.327.133-.102.276-.194.429-.276.378-.204.786-.337 1.205-.398.797-.122 1.614-.153 2.411-.092.745.051 1.471.153 2.196.307.739.156 1.474.337 2.199.541-.342.749-.514 1.572-.514 2.411v3.064c0 .868.552 1.644 1.369 1.93.174.062.327.164.439.317.153.255.225.552.235.858.023 1.127.956 2.025 2.084 2.002 1.127-.023 2.024-.956 2.002-2.084-.021-1.072-.337-2.114-.899-3.023-.317-.46-.705-.858-1.144-1.195v-1.869c0-.542.214-1.063.603-1.441.377-.388.898-.602 1.44-.602h8.171c.542 0 1.062.214 1.44.602.389.378.603.899.603 1.441v1.848c-.449.327-.827.736-1.134 1.195-.572.92-.888 1.962-.909 3.044-.022 1.128.875 2.061 2.002 2.084 1.128.023 2.061-.875 2.084-2.002.01-.317.092-.623.245-.899.102-.122.225-.214.378-.255.838-.276 1.42-1.063 1.42-1.951v-3.064c0-.839-.172-1.661-.514-2.411.574-.161 1.152-.306 1.729-.439.654-.143 1.318-.256 1.982-.337.807-.102 1.624-.133 2.431-.082.47.031.929.123 1.369.276.214.071.418.163.623.276.153.091.296.194.439.306.122.112.245.245.347.378.123.163.225.327.307.511.183.378.316.776.377 1.195.113.745.154 1.501.103 2.267-.092 2.043-.358 4.076-.777 6.088-.173.766-.388 1.532-.653 2.278-.215.613-.48 1.205-.787 1.777-.419.797-1.021 1.491-1.757 2.002-.643.388-1.368.593-2.114.582-.633-.01-1.267-.092-1.88-.265-.486-.14-.961-.302-1.426-.489v-.659c0-1.104-.896-2-2-2-1.104 0-2 .896-2 2v2c-1.06 0-2.08.42-2.83 1.17-.631.631-1.029 1.453-1.139 2.33h-1.031-.5c-.552 0-1 .448-1 1 0 .552.448 1 1 1h.5 1v1h-1-.5c-.552 0-1 .448-1 1 0 .552.448 1 1 1h.5 1v1h-1-.5c-.552 0-1 .448-1 1 0 .552.448 1 1 1h.5zm7.006-8.858c.43.171.87.313 1.317.438.95.266 1.941.409 2.932.419 1.563.02 3.085-.419 4.402-1.246 1.318-.899 2.39-2.094 3.126-3.504.408-.756.756-1.542 1.042-2.349.316-.909.582-1.828.786-2.768.47-2.216.756-4.474.868-6.741.051-1.032.011-2.064-.153-3.095-.122-.818-.368-1.614-.735-2.36-.205-.419-.45-.817-.726-1.185-.275-.357-.582-.694-.919-.991-.347-.296-.725-.561-1.123-.786-.419-.245-.858-.439-1.308-.592-.786-.266-1.603-.429-2.431-.481-1.062-.061-2.135-.03-3.187.103-.807.092-1.593.235-2.38.408-1.001.225-1.991.49-2.962.797l-1.169.361c-.728-.297-1.513-.453-2.314-.453h-8.171c-.796 0-1.577.154-2.301.448l-1.152-.356c-1.164-.358-2.339-.664-3.524-.909-.898-.194-1.808-.317-2.717-.388-1.113-.092-2.237-.041-3.34.122-.878.133-1.726.419-2.512.838-.368.194-.715.419-1.032.674-.327.245-.623.531-.889.827-.275.317-.51.654-.725 1.001-.225.368-.408.756-.562 1.155-.265.694-.449 1.419-.541 2.145-.102.909-.133 1.818-.082 2.717.102 2.267.399 4.525.868 6.741.205.94.46 1.859.787 2.768.276.807.623 1.593 1.042 2.349.735 1.41 1.808 2.605 3.125 3.504 1.308.827 2.84 1.266 4.393 1.246 1.001-.01 1.981-.153 2.941-.419.444-.125.884-.268 1.314-.439.056.065.115.128.176.189.75.75 1.77 1.17 2.83 1.17v5h-1c-1.06 0-2.08.42-2.83 1.17s-1.17 1.77-1.17 2.83v4c0 1.06.42 2.08 1.17 2.83s1.77 1.17 2.83 1.17h9c1.06 0 2.08-.42 2.83-1.17s1.17-1.77 1.17-2.83v-4-7c0-1.104.475-2 1.06-2 0 0 1.02-.42 1.77-1.17.061-.061.119-.124.176-.188zm-1.896-.145" fill="url(#a)" fill-rule="evenodd"/></svg>